<svg xmlns="http://www.w3.org/2000/svg" width="231.028" height="51.868"><g data-name="Grupo 1085"><g data-name="Grupo 1084"><g data-name="Grupo 1083"><path fill="#1074ab" d="M212.38 25.957a6.9 6.9 0 0 1 6.847-2.605c1-.821 2.176-1.759 3.62-2.9.1-.077.195-.156.293-.234h-.007a10.875 10.875 0 0 0-12.6 2.038c-.127.143-.257.285-.379.435-.141.167-.293.346-.45.511.171.2 1.225 1.4 2.628 2.813.019-.021.036-.041.048-.058Z" data-name="Caminho 744"/><path fill="#8dc63f" d="M209.725 23.189c-.022.023.014-.016 0 .008-3.674-4.586-7.69-12.055-1.705-18.562a30.161 30.161 0 0 0-9.43 15.689c-2.7 12.775 3.915 20.131 9.778 23.733-5.921-4.93-4.203-14.126 1.357-20.868Z" data-name="Caminho 745"/><path fill="#d7df23" d="m209.722 23.197-.054.063c.019-.025.036-.048.057-.071 5.938-7.021 16.437-15.091 13.21-19.708-2.067-2.948-6.663-3.093-9.375-2.233-.1.041-.205.083-.307.13a20.569 20.569 0 0 0-5.236 3.257c-5.985 6.507-1.969 13.976 1.705 18.562Z" data-name="Caminho 746"/><path fill="#f15a22" d="M223.141 20.218c-.1.079-.194.157-.293.234-1.445 1.14-2.624 2.078-3.62 2.9 13.036 2.509 11.433 22.227-2.928 22.9a14.19 14.19 0 0 1-4.947-.7c.167.065.412.151.559.2 8.663 2.893 16.561-1.478 18.539-8.875 1.853-6.934-.796-13.628-7.31-16.659Z" data-name="Caminho 747"/><path fill="#3c9cd7" d="M213.557 1.248c2.711-.86 7.307-.715 9.375 2.233 3.085 4.408-6.371 11.976-12.4 18.773a10.871 10.871 0 0 1 12.593-2.038h.01c17.241-13.76 2.078-23.851-9.578-18.968Z" data-name="Caminho 748"/><path fill="#3c9cd7" d="m209.718 23.194.007-.008Zm.034 10.7-.014-.02c-2.319-4.114-1.912-7.926.009-10.652l.053.061a.635.635 0 0 0-.075-.084.011.011 0 0 0 0-.008c-5.546 6.734-7.267 15.913-1.367 20.847.081.051.164.106.245.161a17.808 17.808 0 0 0 2.316 1.172c-4.839-1.97-3.378-7.604-1.167-11.482Z" data-name="Caminho 749"/><path fill="#f15a22" d="M220.767 32.992a7.457 7.457 0 0 0 .333-2.258c.053.708-.607 3.812-3.317 4.638a5.33 5.33 0 0 1-6.5-3.9c-.573.89-1.152 1.781-1.529 2.416 2.819 3.809 9.176 4.417 11.013-.896Z" data-name="Caminho 750"/><path fill="#1074ab" d="M211.279 31.476a6.382 6.382 0 0 1 1.059-5.464c-1.354-1.361-2.368-2.526-2.592-2.787-1.919 2.724-2.327 6.536-.01 10.639l.016.025c.377-.634.956-1.523 1.527-2.413Z" data-name="Caminho 751"/><path fill="#f58220" d="M220.49 23.658c-.094-.023-.19-.051-.287-.079-.073-.018-.148-.041-.225-.059s-.169-.044-.249-.062c-.166-.036-.331-.075-.5-.106l-.069.026a56.258 56.258 0 0 0-4.376 3.98 3.9 3.9 0 0 1 5.848 1.191c.032.056.06.115.086.169.016.035.037.066.051.1.036.08.065.16.1.241a4.015 4.015 0 0 1 .238 1.623v.194a7.7 7.7 0 0 1-.333 2.117c-1.839 5.313-8.195 4.7-11.015.9-2.211 3.878-3.672 9.511 1.17 11.494.1.044.266.1.472.177a14.235 14.235 0 0 0 4.905.692c13.875-.654 15.836-19.091 4.184-22.598Z" data-name="Caminho 752"/><path fill="#f15a22" d="M214.794 27.346a53.924 53.924 0 0 1 4.433-3.995 6.9 6.9 0 0 0-6.847 2.605c-.012.016-.029.037-.043.055.586.59 1.239 1.219 1.924 1.834a4.178 4.178 0 0 1 .533-.499Z" data-name="Caminho 753"/><path fill="#f15a22" d="M214.267 27.843c-.7-.618-1.354-1.255-1.942-1.85l.009.013a6.334 6.334 0 0 0-1.056 5.466 34.8 34.8 0 0 1 2.791-3.387 2.07 2.07 0 0 1 .198-.242Z" data-name="Caminho 754"/><path fill="#f58220" d="M221.109 30.394a3.985 3.985 0 0 1-.127 1.038v.008a3.9 3.9 0 0 1-4.778 2.761h-.007a3.914 3.914 0 0 1-2.768-4.787 3.844 3.844 0 0 1 .642-1.323 35.093 35.093 0 0 0-2.787 3.385 5.33 5.33 0 0 0 6.5 3.9c2.57-.784 3.292-3.607 3.317-4.5a5.041 5.041 0 0 1-.043.71 5.212 5.212 0 0 0 .051-1.192Z" data-name="Caminho 755"/></g></g></g><g fill="#6e6e6e" class="svg-cinza" data-name="Grupo 1086"><path d="M0 37.136v-2.47c0-5.953 3.333-9.048 8.959-9.048a8.067 8.067 0 0 1 5.8 2.322.523.523 0 0 1 .179.387.639.639 0 0 1-.179.387l-1.012 1.19a.509.509 0 0 1-.387.208.572.572 0 0 1-.357-.119 6.348 6.348 0 0 0-4.2-1.578c-3.393 0-5.149 1.756-5.149 5.715v3.482c0 3.839 1.756 5.715 4.732 5.715 2.56 0 4.137-1.012 4.137-3.691V37.85H9.249a.517.517 0 0 1-.565-.565v-1.637a.517.517 0 0 1 .565-.565h6.221a.517.517 0 0 1 .565.565v3.571c0 4.464-3.125 6.9-7.679 6.9C3.095 46.124 0 43.059 0 37.136Z" data-name="Caminho 756"/><path d="M18.78 45.291V32.255a.56.56 0 0 1 .327-.565A13.678 13.678 0 0 1 25 30.351a14.243 14.243 0 0 1 1.577.06.5.5 0 0 1 .417.536v1.607c0 .3-.179.417-.506.417h-1.1a8.423 8.423 0 0 0-3.006.446v11.875a.438.438 0 0 1-.476.476h-2.649a.438.438 0 0 1-.477-.477Z" data-name="Caminho 757"/><path d="M29.018 39.696v-8.631a.438.438 0 0 1 .476-.476h2.649a.438.438 0 0 1 .476.476v8.691c0 2.976 1.1 3.72 3.125 3.72a14.161 14.161 0 0 0 3.036-.268V31.064a.438.438 0 0 1 .476-.476h2.649a.438.438 0 0 1 .476.476v13.393a.521.521 0 0 1-.357.536 20.71 20.71 0 0 1-6.518 1.131c-4.434 0-6.488-2.262-6.488-6.428Z" data-name="Caminho 758"/><path d="M59.287 37.103v2.054c0 4.553-2.768 6.875-7.083 6.875a9.3 9.3 0 0 1-3.125-.506v5.863a.438.438 0 0 1-.476.476h-2.649a.438.438 0 0 1-.476-.476V32.103a.521.521 0 0 1 .357-.536 16.048 16.048 0 0 1 6.072-1.339c4.853.003 7.38 2.414 7.38 6.875Zm-3.6.119c0-3.125-1.012-4.4-3.6-4.4a9.6 9.6 0 0 0-3.006.476v9.732a8.4 8.4 0 0 0 2.917.416c2.828 0 3.69-1.4 3.69-4.494Z" data-name="Caminho 759"/><path d="M61.429 39.13v-1.9c0-4.643 2.857-6.994 7.054-6.994 4.256 0 7.054 2.351 7.054 6.994v1.9c0 4.643-2.857 6.994-7.054 6.994-4.256 0-7.054-2.351-7.054-6.994Zm10.506-.119v-1.667c0-3.244-.982-4.554-3.452-4.554s-3.452 1.369-3.452 4.554v1.667c0 3.244.982 4.554 3.452 4.554s3.452-1.369 3.452-4.554Z" data-name="Caminho 760"/><path d="M78.929 45.559a.527.527 0 0 1-.476-.565V26.66a.51.51 0 0 1 .476-.565 36.018 36.018 0 0 1 6.131-.476c4.554 0 7.5 2.113 7.5 5.149v.506a4.4 4.4 0 0 1-2.262 3.75 5.336 5.336 0 0 1 3.215 4.7v.565c0 3.571-2.917 5.833-8.125 5.833a33.229 33.229 0 0 1-6.459-.563Zm6.965-11.31c2.054 0 3.3-1.042 3.3-2.768v-.357c0-1.7-1.458-2.709-3.839-2.709a30.479 30.479 0 0 0-3.542.179v5.655Zm4.077 5.923v-.357c0-1.816-1.4-2.917-3.631-2.917h-4.524v6.25a35.283 35.283 0 0 0 3.988.179c2.709 0 4.167-1.072 4.167-3.155Z" data-name="Caminho 761"/><path d="M95.655 39.13v-1.9c0-4.643 2.857-6.994 7.054-6.994 4.256 0 7.054 2.351 7.054 6.994v1.9c0 4.643-2.857 6.994-7.054 6.994-4.256 0-7.054-2.351-7.054-6.994Zm10.506-.119v-1.667c0-3.244-.982-4.554-3.453-4.554s-3.452 1.369-3.452 4.554v1.667c0 3.244.982 4.554 3.452 4.554s3.453-1.369 3.453-4.554Z" data-name="Caminho 762"/><path d="M120.655 43.565v1.578a.573.573 0 0 1-.417.6 8.919 8.919 0 0 1-2.56.387c-3.631 0-5.506-1.935-5.506-5.655V27.493a.47.47 0 0 1 .446-.506l2.411-.565a3.593 3.593 0 0 1 .417-.089c.208 0 .327.179.327.417v3.839h4.316a.438.438 0 0 1 .476.476v1.7a.438.438 0 0 1-.476.476h-4.316v7.108c0 2.53.8 3.125 2.59 3.125a6.176 6.176 0 0 0 1.7-.208 1.309 1.309 0 0 1 .3-.06c.173.002.292.121.292.359Z" data-name="Caminho 763"/><path d="M122.828 26.749v-.387a1.809 1.809 0 0 1 2.024-1.875 1.785 1.785 0 0 1 1.994 1.875v.387a1.785 1.785 0 0 1-1.994 1.875 1.809 1.809 0 0 1-2.024-1.875Zm.208 18.542V31.065a.438.438 0 0 1 .476-.476h2.649a.438.438 0 0 1 .476.476v14.226a.438.438 0 0 1-.476.476h-2.649a.438.438 0 0 1-.476-.476Z" data-name="Caminho 764"/><path d="M129.316 38.773v-1.25c0-4.911 2.887-7.292 7.292-7.292a6.573 6.573 0 0 1 4.107 1.458.557.557 0 0 1 .238.417.71.71 0 0 1-.179.417l-.863 1.071c-.149.178-.268.268-.417.268a.627.627 0 0 1-.328-.149 4.577 4.577 0 0 0-2.619-.863c-2.857 0-3.631 1.7-3.631 4.881v.893c0 3.155.893 4.881 3.6 4.881a5.459 5.459 0 0 0 3.065-1.012.48.48 0 0 1 .268-.089c.119 0 .208.089.357.3l.863 1.19a.569.569 0 0 1 .149.357.454.454 0 0 1-.208.357 8.071 8.071 0 0 1-4.524 1.518c-4.61-.002-7.17-2.323-7.17-7.353Z" data-name="Caminho 765"/><path d="M154.792 36.809v7.53a.752.752 0 0 1-.476.744 14.711 14.711 0 0 1-5.744 1.042c-3.839 0-6.042-1.518-6.042-4.4V41.1c0-2.738 2.143-4.167 6.042-4.167h2.857v-.417c0-2.47-.8-3.631-3.125-3.631a6.588 6.588 0 0 0-3.363.952.663.663 0 0 1-.3.089.566.566 0 0 1-.446-.238l-.833-1.131a.581.581 0 0 1-.149-.387.434.434 0 0 1 .208-.387 8.856 8.856 0 0 1 4.941-1.548c4.257-.004 6.43 2.109 6.43 6.574Zm-9.316-8.691v-1.1a.63.63 0 0 1 .506-.6l6.4-1.994c.268-.089.476.03.476.327v1.994a.644.644 0 0 1-.446.655l-6.43 1.164c-.327.06-.505-.119-.505-.446Zm5.953 15.09V39.16h-2.857c-1.994 0-2.8.714-2.8 1.964v.476c0 1.1.8 1.994 2.8 1.994a6.635 6.635 0 0 0 2.857-.386Z" data-name="Caminho 766"/><path d="M157.828 45.291V32.255a.56.56 0 0 1 .327-.565 13.678 13.678 0 0 1 5.893-1.339 14.243 14.243 0 0 1 1.577.06.5.5 0 0 1 .417.536v1.607c0 .3-.179.417-.506.417h-1.1a8.425 8.425 0 0 0-3.006.446v11.875a.438.438 0 0 1-.476.476h-2.649a.438.438 0 0 1-.477-.477Z" data-name="Caminho 767"/><path d="M167.977 26.749v-.387a1.809 1.809 0 0 1 2.024-1.875 1.785 1.785 0 0 1 1.994 1.875v.387a1.785 1.785 0 0 1-1.994 1.875 1.809 1.809 0 0 1-2.024-1.875Zm.208 18.542V31.065a.438.438 0 0 1 .476-.476h2.649a.438.438 0 0 1 .476.476v14.226a.438.438 0 0 1-.476.476h-2.649a.438.438 0 0 1-.476-.476Z" data-name="Caminho 768"/><path d="M174.465 39.13v-1.9c0-4.643 2.857-6.994 7.054-6.994 4.256 0 7.054 2.351 7.054 6.994v1.9c0 4.643-2.857 6.994-7.054 6.994-4.256 0-7.054-2.351-7.054-6.994Zm10.506-.119v-1.667c0-3.244-.982-4.554-3.452-4.554s-3.453 1.369-3.453 4.554v1.667c0 3.244.982 4.554 3.453 4.554s3.452-1.369 3.452-4.554Z" data-name="Caminho 769"/></g></svg>